HIERARCHY
ROOT Beta:Hips
{
	OFFSET 0.00 0.00 0.00
	CHANNELS 6 Xposition Yposition Zposition Yrotation Xrotation Zrotation
	JOINT Beta:Spine
	{
		OFFSET	0.0000	9.2263	1.5771
		CHANNELS 3 Xrotation Yrotation Zrotation
		JOINT Beta:Spine1
		{
			OFFSET	0.0000	16.2540	-0.1656
			CHANNELS 3 Xrotation Yrotation Zrotation
			JOINT Beta:Spine2
			{
				OFFSET	0.0000	13.6396	-1.2923
				CHANNELS 3 Xrotation Yrotation Zrotation
				JOINT Beta:Neck
				{
					OFFSET	0.0000	13.8774	-4.3542
					CHANNELS 3 Xrotation Yrotation Zrotation
					JOINT Beta:Neck1
					{
						OFFSET	0.0000	4.3400	0.9269
						CHANNELS 3 Xrotation Yrotation Zrotation
						JOINT Beta:Head
						{
							OFFSET	0.0000	4.0266	0.8585
							CHANNELS 3 Xrotation Yrotation Zrotation
							End Site
							{
								OFFSET 0.0000 23.0297 0.1231
							}
						}
					}
				}
				JOINT Beta:LeftShoulder
				{
					OFFSET	6.1442	10.1870	-3.7932
					CHANNELS 3 Zrotation Xrotation Yrotation
					JOINT Beta:LeftArm
					{
						OFFSET	12.3191	-1.1130	-1.7935
						CHANNELS 3 Zrotation Xrotation Yrotation
						JOINT Beta:LeftForeArm
						{
							OFFSET	27.6870	0.0000	0.0000
							CHANNELS 3 Xrotation Zrotation Yrotation
							JOINT Beta:LeftHand
							{
								OFFSET	27.8738	0.0000	0.0000
								CHANNELS 3 Zrotation Yrotation Xrotation
								JOINT Beta:LeftHandThumb1
								{
									OFFSET	2.3785	-1.0029	2.6209
									CHANNELS 3 Zrotation Xrotation Yrotation
									JOINT Beta:LeftHandThumb2
									{
										OFFSET	3.3624	-1.0029	2.8398
										CHANNELS 3 Zrotation Xrotation Yrotation
										JOINT Beta:LeftHandThumb3
										{
											OFFSET	4.5018	-1.3445	2.1783
											CHANNELS 3 Zrotation Xrotation Yrotation
											End Site
											{
												OFFSET 2.6000 -1.0000 1.0000
											}
										}
									}
								}
								JOINT Beta:LeftHandMiddle1
								{
									OFFSET	10.4639	0.6148	0.4298
									CHANNELS 3 Zrotation Xrotation Yrotation
									JOINT Beta:LeftHandMiddle2
									{
										OFFSET	5.7921	0.0000	0.0000
										CHANNELS 3 Zrotation Xrotation Yrotation
										JOINT Beta:LeftHandMiddle3
										{
											OFFSET	3.7132	0.0000	0.0000
											CHANNELS 3 Zrotation Xrotation Yrotation
											End Site
											{
												OFFSET 2.3000 0.0000 0.0000
											}
										}
									}
								}
								JOINT Beta:LeftHandIndex1
								{
									OFFSET	10.3945	0.6148	2.7055
									CHANNELS 3 Zrotation Xrotation Yrotation
									JOINT Beta:LeftHandIndex2
									{
										OFFSET	5.5493	0.0000	0.0000
										CHANNELS 3 Zrotation Xrotation Yrotation
										JOINT Beta:LeftHandIndex3
										{
											OFFSET	3.3911	0.0000	0.0000
											CHANNELS 3 Zrotation Xrotation Yrotation
											End Site
											{
												OFFSET 2.5000 0.0000 0.0000
											}
										}
									}
								}
								JOINT Beta:LeftHandRing1
								{
									OFFSET	10.3252	0.3211	-1.8755
									CHANNELS 3 Zrotation Xrotation Yrotation
									JOINT Beta:LeftHandRing2
									{
										OFFSET	5.4452	0.0000	0.0000
										CHANNELS 3 Zrotation Xrotation Yrotation
										JOINT Beta:LeftHandRing3
										{
											OFFSET	3.7132	0.0000	0.0000
											CHANNELS 3 Zrotation Xrotation Yrotation
											End Site
											{
												OFFSET 2.0000 0.0000 0.0000
											}
										}
									}
								}
								JOINT Beta:LeftHandPinky1
								{
									OFFSET	10.0130	-0.0783	-3.9671
									CHANNELS 3 Zrotation Xrotation Yrotation
									JOINT Beta:LeftHandPinky2
									{
										OFFSET	3.6763	0.0000	0.0000
										CHANNELS 3 Zrotation Xrotation Yrotation
										JOINT Beta:LeftHandPinky3
										{
											OFFSET	2.8113	0.0000	0.0000
											CHANNELS 3 Zrotation Xrotation Yrotation
											End Site
											{
												OFFSET 2.9000 0.0000 0.0000
											}
										}
									}
								}
							}
						}
					}
				}
				JOINT Beta:RightShoulder
				{
					OFFSET	-6.1402	10.1870	-3.7932
					CHANNELS 3 Zrotation Xrotation Yrotation
					JOINT Beta:RightArm
					{
						OFFSET	-12.3231	-1.1130	-1.7935
						CHANNELS 3 Zrotation Xrotation Yrotation
						JOINT Beta:RightForeArm
						{
							OFFSET	-27.6870	0.0000	0.0000
							CHANNELS 3 Xrotation Zrotation Yrotation
							JOINT Beta:RightHand
							{
								OFFSET	-27.8738	0.0000	0.0000
								CHANNELS 3 Zrotation Yrotation Xrotation
								JOINT Beta:RightHandThumb1
								{
									OFFSET	-2.5178	-0.9367	2.5137
									CHANNELS 3 Zrotation Xrotation Yrotation
									JOINT Beta:RightHandThumb2
									{
										OFFSET	-3.2638	-1.0870	2.9669
										CHANNELS 3 Zrotation Xrotation Yrotation
										JOINT Beta:RightHandThumb3
										{
											OFFSET	-4.4165	-1.3703	2.1350
											CHANNELS 3 Zrotation Xrotation Yrotation
											End Site
											{
												OFFSET -2.6000 -1.0000 1.0000
											}
										}
									}
								}
								JOINT Beta:RightHandIndex1
								{
									OFFSET	-10.4665	0.4896	2.7120
									CHANNELS 3 Zrotation Xrotation Yrotation
									JOINT Beta:RightHandIndex2
									{
										OFFSET	-5.3768	0.0000	0.0000
										CHANNELS 3 Zrotation Xrotation Yrotation
										JOINT Beta:RightHandIndex3
										{
											OFFSET	-3.3855	0.0000	0.0000
											CHANNELS 3 Zrotation Xrotation Yrotation
											End Site
											{
												OFFSET -2.6000 0.0000 0.0000
											}
										}
									}
								}
								JOINT Beta:RightHandMiddle1
								{
									OFFSET	-10.7596	0.4896	0.4278
									CHANNELS 3 Zrotation Xrotation Yrotation
									JOINT Beta:RightHandMiddle2
									{
										OFFSET	-5.6168	0.0000	0.0000
										CHANNELS 3 Zrotation Xrotation Yrotation
										JOINT Beta:RightHandMiddle3
										{
											OFFSET	-3.7364	0.0000	0.0000
											CHANNELS 3 Zrotation Xrotation Yrotation
											End Site
											{
												OFFSET -2.3000 0.0000 0.0000
											}
										}
									}
								}
								JOINT Beta:RightHandRing1
								{
									OFFSET	-10.4702	0.3879	-1.9363
									CHANNELS 3 Zrotation Xrotation Yrotation
									JOINT Beta:RightHandRing2
									{
										OFFSET	-5.4013	0.0000	0.0000
										CHANNELS 3 Zrotation Xrotation Yrotation
										JOINT Beta:RightHandRing3
										{
											OFFSET	-3.3916	0.0000	0.0000
											CHANNELS 3 Zrotation Xrotation Yrotation
											End Site
											{
												OFFSET -2.2000 0.0000 0.0000
											}
										}
									}
								}
								JOINT Beta:RightHandPinky1
								{
									OFFSET	-9.9715	-0.1191	-3.9540
									CHANNELS 3 Zrotation Xrotation Yrotation
									JOINT Beta:RightHandPinky2
									{
										OFFSET	-3.6528	0.0000	0.0000
										CHANNELS 3 Zrotation Xrotation Yrotation
										JOINT Beta:RightHandPinky3
										{
											OFFSET	-2.7820	0.0000	0.0000
											CHANNELS 3 Zrotation Xrotation Yrotation
											End Site
											{
												OFFSET -2.9000 0.0000 0.0000
											}
										}
									}
								}
							}
						}
					}
				}
			}
		}
	}
	JOINT Beta:LeftUpLeg
	{
		OFFSET	9.6338	-3.2733	0.0000
		CHANNELS 3 Xrotation Yrotation Zrotation
		JOINT Beta:LeftLeg
		{
			OFFSET	0.0000	-41.7300	-1.7300
			CHANNELS 3 Xrotation Yrotation Zrotation
			JOINT Beta:LeftFoot
			{
				OFFSET	0.0126	-39.1900	-0.8477
				CHANNELS 3 Xrotation Yrotation Zrotation
				JOINT Beta:LeftToeBase
				{
					OFFSET	-0.1833	-12.1931	8.2823
					CHANNELS 3 Xrotation Yrotation Zrotation
					End Site
					{
						OFFSET 0.0000 0.0000 10.1681
					}
				}
			}
		}
	}
	JOINT Beta:RightUpLeg
	{
		OFFSET	-9.6338	-3.2733	0.0000
		CHANNELS 3 Xrotation Yrotation Zrotation
		JOINT Beta:RightLeg
		{
			OFFSET	0.0000	-41.7300	-1.7300
			CHANNELS 3 Xrotation Yrotation Zrotation
			JOINT Beta:RightFoot
			{
				OFFSET	0.0126	-39.1900	-0.8477
				CHANNELS 3 Xrotation Yrotation Zrotation
				JOINT Beta:RightToeBase
				{
					OFFSET	-0.1833	-12.1931	8.2823
					CHANNELS 3 Xrotation Yrotation Zrotation
					End Site
					{
						OFFSET 0.0032 0.0000 10.1681
					}
				}
			}
		}
	}
}
MOTION
Frames: 5
Frame Time: 0.0333333
-7.6358 93.2756 459.8985 161.8238 1.4814 3.0657 -8.3799 8.3415 -2.1580 2.8858 0.8678 -2.8401 2.9189 0.9256 -2.7891 -2.2674 -1.1268 -1.9808 -0.0000 0.0000 -0.0000 5.1638 9.4765 4.2863 -7.9587 3.4379 -8.7888 -68.7609 -24.7847 22.4479 0.0000 0.0000 -34.6845 -2.3852 6.5183 20.0677 11.9335 -0.2174 16.5592 -9.2802 1.5344 12.9450 -0.1984 0.2876 3.9050 -8.3834 0.3901 -5.3269 -21.4826 -0.0705 0.3718 -22.2148 -0.0754 0.3838 -12.2527 0.5299 -5.1815 -27.3472 -0.1135 0.4664 -18.4130 -0.0520 0.3207 -9.4793 0.4295 -2.8492 -29.8606 -0.1348 0.5055 -3.2287 -0.0016 0.0572 -8.8030 0.4215 7.4275 -25.9603 1.6854 -3.2301 -25.2459 -0.0970 0.4330 2.4212 1.5373 8.4527 102.8393 38.9264 -51.1900 0.0000 -0.0000 63.4440 -66.1835 58.8441 -18.8867 13.7743 10.5083 -3.4697 1.5135 -0.9166 6.2108 -6.5444 -9.3583 23.3526 -41.1623 -1.9171 14.0098 16.2001 -0.0907 -0.6373 15.2179 -0.0801 -0.5996 -31.6576 -1.4282 8.4915 23.3557 -0.1872 -0.9056 0.8723 2.2446 -0.0348 -23.4771 -1.0068 5.6750 11.7688 -0.0480 -0.4659 3.0077 -0.5616 -0.1199 -19.9141 -0.7790 -9.3200 10.9040 -0.0412 -0.4321 9.2888 -0.0300 -0.3687 -5.3069 3.0261 -12.4461 22.2768 1.4167 1.7265 -18.2165 0.4191 -2.1013 0.0633 -0.0032 0.6814 -8.1508 -12.2131 -13.4139 57.6582 -9.7077 -1.1576 15.7601 -6.9632 26.8119 -12.2106 0.0000 -0.0000 
-8.0472 92.6270 458.8452 162.7246 1.2459 3.7836 -7.7406 7.5602 -1.6793 2.8755 0.7627 -2.9935 2.9084 0.8137 -2.9493 -2.0553 -0.4545 -2.3084 -0.0000 0.0000 -0.0000 5.2315 12.6413 3.6847 -8.2559 4.0521 -10.0962 -69.1536 -23.6067 17.9527 0.0000 -0.0000 -32.0419 -3.6184 7.2734 22.3671 12.8958 -0.0852 16.8763 -9.1447 1.5090 12.4164 -0.0441 0.1809 3.3744 -7.5320 0.3586 -5.3026 -21.9951 -0.0739 0.3802 -22.1047 -0.0746 0.3820 -11.9692 0.5203 -5.4890 -27.3452 -0.1134 0.4663 -18.3887 -0.0518 0.3203 -9.2688 0.4219 -2.8644 -30.4286 -0.1398 0.5142 -2.9574 -0.0014 0.0524 -7.7652 0.3818 6.9458 -27.3999 1.7658 -3.1612 -25.2804 -0.0972 0.4335 2.4253 1.4662 7.9073 100.6674 35.6743 -50.3237 0.0000 -0.0000 64.7108 -58.6603 58.4602 -13.2255 14.2223 10.0188 -3.5711 1.4928 -0.9603 6.2391 -6.5448 -9.3687 23.3566 -40.9212 -1.9074 13.5215 16.1324 -0.0900 -0.6348 15.2101 -0.0800 -0.5993 -31.4148 -1.4168 8.0516 23.3114 -0.1865 -0.9040 0.8670 1.9610 -0.0345 -23.2123 -0.9940 5.2855 11.6706 -0.0472 -0.4621 3.0133 -0.9268 -0.1202 -19.6357 -0.7620 -9.7017 10.8983 -0.0412 -0.4319 9.2612 -0.0298 -0.3676 -5.2099 3.2798 -13.3886 24.3537 0.2797 1.4294 -20.1570 0.4196 -1.9108 0.2099 -0.0017 0.4936 -15.2055 -9.7429 -16.4454 69.5427 -9.7763 -1.8237 17.2094 -4.2834 26.5879 -8.2618 0.0000 -0.0000 
-8.3181 91.7581 458.0737 163.0972 0.7150 4.6601 -6.0125 6.4844 -1.8297 2.9332 0.6247 -2.9877 2.9613 0.6630 -2.9521 -2.2030 0.1616 -2.4738 -0.0000 0.0000 -0.0000 4.4881 15.7345 3.2565 -8.5571 4.7541 -11.4856 -68.8844 -21.8158 12.9177 -0.0000 -0.0000 -29.9428 -5.8999 8.5490 25.4638 13.8476 0.1954 17.4731 -9.0622 1.4936 12.0951 0.1042 0.0785 2.8640 -6.5685 0.3224 -5.0348 -22.5362 -0.0775 0.3891 -21.9750 -0.0738 0.3799 -11.9146 0.5187 -5.8139 -27.3426 -0.1134 0.4663 -18.3537 -0.0516 0.3197 -8.7354 0.4023 -2.5635 -31.0089 -0.1451 0.5230 -2.6689 -0.0011 0.0473 -6.5250 0.3345 6.5789 -29.0599 1.8562 -3.0793 -25.3674 -0.0979 0.4349 2.7476 1.4926 7.7335 98.0987 32.9802 -49.0441 0.0000 -0.0000 65.5981 -51.8925 58.2153 -7.6361 13.9578 10.1796 -3.4884 1.5129 -0.9150 6.2118 -6.5447 -9.3574 23.3528 -40.9942 -1.9098 13.7400 16.1664 -0.0903 -0.6360 15.2183 -0.0801 -0.5997 -31.4907 -1.4201 8.2551 23.3389 -0.1869 -0.9050 0.8692 2.0537 -0.0346 -23.3108 -0.9987 5.4746 11.7640 -0.0480 -0.4657 3.0079 -0.7933 -0.1200 -19.7473 -0.7693 -9.5013 10.9655 -0.0417 -0.4345 9.2893 -0.0300 -0.3688 -5.5566 3.5099 -14.6615 27.5178 0.1227 1.2688 -22.3108 0.2377 -0.9701 0.2302 -0.0020 0.5412 -22.8276 -5.1651 -17.8543 82.5612 -9.6417 -2.4251 21.0700 -1.8393 23.6790 -6.1646 0.0000 -0.0000 
-8.3609 90.7097 457.4386 163.1866 -0.3515 5.5292 -3.1157 5.0052 -2.5403 3.0933 0.4451 -2.7809 3.1128 0.4658 -2.7556 -2.8469 0.7475 -2.5500 -0.0000 0.0000 -0.0000 2.9417 18.7807 2.9644 -8.8077 5.4023 -12.6588 -67.5934 -18.8681 7.5317 -0.0000 0.0000 -28.6350 -9.1742 10.3381 28.6035 14.4753 0.5734 18.2313 -9.0413 1.4897 12.0140 0.2146 0.0021 2.4836 -5.8918 0.2967 -4.5813 -23.3406 -0.0831 0.4022 -21.8073 -0.0727 0.3772 -12.3822 0.5355 -6.0962 -27.3396 -0.1134 0.4662 -18.3116 -0.0514 0.3190 -8.1265 0.3799 -2.1017 -31.5963 -0.1505 0.5319 -2.4278 -0.0009 0.0430 -5.3104 0.2878 6.2852 -30.5374 1.9347 -3.0043 -25.4834 -0.0988 0.4368 3.1395 1.5584 7.8061 95.1921 30.9604 -47.1983 -0.0000 -0.0000 66.0479 -46.6798 57.9692 -2.8948 13.2160 9.8078 -3.6353 1.7058 -0.5274 5.9315 -6.5404 -9.2684 23.3151 -40.2703 -1.8699 13.7213 16.2980 -0.0918 -0.6411 15.2855 -0.0808 -0.6022 -30.7690 -1.3817 8.2005 23.3851 -0.1877 -0.9067 0.8736 2.1321 -0.0348 -22.7705 -0.9713 5.4084 12.4016 -0.0533 -0.4906 2.9589 -0.6577 -0.1180 -19.3174 -0.7490 -9.3915 11.6752 -0.0473 -0.4623 9.5310 -0.0315 -0.3783 -6.2519 4.2055 -15.6411 32.4019 0.1819 0.9891 -24.2252 -0.0126 0.0456 -0.7246 -0.0039 0.7570 -30.0977 0.6416 -17.1418 95.3620 -9.6215 -2.5389 27.0034 1.8694 18.1477 -6.6097 0.0000 -0.0000 
-8.1567 89.7286 456.7180 163.2074 -1.6528 6.1152 0.3770 3.1330 -3.4624 3.3728 0.2340 -2.3990 3.3826 0.2371 -2.3849 -3.9364 1.2886 -2.5912 -0.0000 0.0000 -0.0000 0.6921 21.6269 2.7873 -8.9969 5.9116 -13.4718 -64.9792 -14.5951 2.0277 0.0000 -0.0000 -28.1519 -12.7318 12.2612 30.4830 14.6894 0.9273 18.9150 -9.0371 1.4889 11.9978 0.2832 -0.0453 2.2472 -5.8555 0.2951 -4.0844 -24.7304 -0.0931 0.4247 -21.6099 -0.0714 0.3739 -13.6615 0.5802 -6.3239 -27.3366 -0.1134 0.4662 -18.2685 -0.0512 0.3182 -7.7918 0.3676 -1.7477 -32.3457 -0.1575 0.5432 -2.2966 -0.0008 0.0407 -4.2257 0.2452 5.8689 -31.6322 1.9916 -2.9474 -25.6043 -0.0997 0.4387 3.4031 1.6056 7.9027 92.0079 28.9220 -44.8342 0.0000 -0.0000 66.1838 -40.9869 57.6998 2.4837 11.7416 8.4933 -4.1950 2.1941 0.3835 5.2014 -6.5256 -9.0715 23.2175 -38.2362 -1.7611 13.2285 16.5677 -0.0949 -0.6514 15.4456 -0.0825 -0.6084 -28.7344 -1.2752 7.6591 23.4563 -0.1888 -0.9093 0.8796 2.0942 -0.0351 -21.1693 -0.8913 4.8752 13.9059 -0.0669 -0.5490 2.8404 -0.6281 -0.1133 -17.9815 -0.6832 -9.4760 13.4414 -0.0626 -0.5310 10.1120 -0.0355 -0.4011 -6.1956 4.9119 -16.3198 36.4935 -0.0370 1.0324 -25.7725 -0.3031 1.1515 -1.4696 -0.0152 1.4906 -37.2381 6.3699 -14.4344 107.3209 -6.4765 -1.9551 32.4218 2.9965 14.4603 -7.5515 0.0000 -0.0000 
